<svg xmlns="http://www.w3.org/2000/svg" viewBox="0 0 216.28 52.57"><defs><style>.cls-1{fill:#8ef3da;}.cls-2{fill:#1dc0cb;}.cls-3{fill:#243356;}.cls-4{fill:#3d6b8d;}.cls-5{fill:#e1a79b;}.cls-6{fill:#f2e0c5;}.cls-7{fill:#473d3b;}.cls-8{fill:#73605c;}</style></defs><g id="Layer_2" data-name="Layer 2"><g id="layer_1-2" data-name="layer 1"><g id="Keys"><polygon class="cls-1" points="41.27 9.75 43.03 13.26 18.35 13.26 14.44 9.75 41.27 9.75"/><polygon class="cls-1" points="88.76 14.2 88.76 16.22 80.09 16.22 78.25 14.2 88.76 14.2"/><polygon class="cls-1" points="105 14.2 105 16.22 96.34 16.22 94.49 14.2 105 14.2"/><polygon class="cls-1" points="153.75 14.2 153.75 16.22 145.08 16.22 143.23 14.2 153.75 14.2"/><polygon class="cls-2" points="72.52 14.2 72.52 16.22 63.85 16.22 62 14.2 72.52 14.2"/><polygon class="cls-2" points="121.26 14.2 121.26 16.22 112.58 16.22 110.73 14.2 121.26 14.2"/><polygon class="cls-2" points="137.5 14.2 137.5 16.22 128.82 16.22 126.98 14.2 137.5 14.2"/><polygon class="cls-2" points="169.99 14.2 169.99 16.22 161.32 16.22 159.47 14.2 169.99 14.2"/><polygon class="cls-3" points="43.3 21.15 59.89 40.42 53.37 40.42 34.4 21.15 43.3 21.15"/><path class="cls-4" d="M185.17,4.62l31.11,39.25h-8.46L185.17,18.79H51.39l2,2.36L72.43,43.87H47.85L0,4.62ZM170,16.22v-2H159.47l1.85,2Zm-16.25,0v-2H143.23l1.85,2Zm-16.24,0v-2H127l1.84,2Zm-16.24,0v-2H110.73l1.85,2Zm-16.25,0v-2H94.49l1.85,2Zm-16.25,0v-2H78.24l1.85,2Zm-16.24,0v-2H62l1.85,2ZM59.89,40.42,43.3,21.15H34.4l19,19.27ZM43,13.26,41.27,9.75H14.44l3.91,3.51Z"/><path class="cls-3" d="M216.28,43.87l-.85,8.7H47.85v-8.7H72.43v4.31H206.8l1-4.31Z"/><polygon class="cls-3" points="207.82 43.87 206.8 48.18 205.33 48.18 205.33 43.87 183.44 21.15 174.95 21.15 168.68 21.15 160.06 21.15 153.78 21.15 145.17 21.15 138.9 21.15 130.28 21.15 124.01 21.15 115.39 21.15 109.12 21.15 100.51 21.15 94.23 21.15 85.61 21.15 79.35 21.15 70.73 21.15 64.46 21.15 53.37 21.15 51.39 18.79 185.17 18.79 207.82 43.87"/><path class="cls-5" d="M205.33,43.87v4.31H72.43V43.87Z"/><path class="cls-6" d="M183.44,21.15l21.89,22.72H72.43L53.37,21.15H64.46L78.58,37.39h3.88L70.73,21.15h8.62L93.46,37.39h3.89L85.61,21.15h8.62l14.13,16.24h3.88L100.51,21.15h8.61l14.13,16.24h3.87L115.39,21.15H124l14.12,16.24H142L130.28,21.15h8.62L153,37.39h3.87L145.17,21.15h8.61l14.13,16.24h3.88L160.06,21.15h8.62L182.8,37.39h3.87L175,21.15Z"/><path class="cls-7" d="M175,21.15l11.72,16.24H182.8L168.68,21.15Zm-21.17,0,14.13,16.24h3.88L160.06,21.15Zm-14.88,0L153,37.39h3.87L145.17,21.15Zm-14.89,0,14.12,16.24H142L130.28,21.15Zm-14.89,0,14.13,16.24h3.87L115.39,21.15Zm-14.89,0,14.13,16.24h3.88L100.51,21.15Zm-14.88,0L93.46,37.39h3.89L85.61,21.15Zm-14.89,0L78.58,37.39h3.88L70.73,21.15Z"/><path class="cls-8" d="M183.64,36.24,170.8,21.47h4.27l10.66,14.77Zm-14.89,0L155.91,21.47h4.28l10.66,14.77Zm-14.88,0L141,21.47h4.27L156,36.24Zm-14.9,0L126.13,21.47h4.28l10.67,14.77Zm-14.89,0L111.24,21.47h4.28l10.66,14.77Zm-14.88,0L96.35,21.47h4.28L111.3,36.24Zm-14.9,0L81.47,21.47h4.27L96.41,36.24Zm-14.88,0L66.58,21.47h4.27L81.51,36.24Z"/><polygon class="cls-3" points="47.85 43.87 47.85 52.56 2.43 46.21 0 4.62 47.85 43.87"/><polygon class="cls-6" points="51.72 28.34 39.94 28.34 40.29 20.15 50.37 20.48 51.72 28.34"/><polygon class="cls-5" points="40.29 20.15 37.31 20.15 36.82 26.52 39.94 28.34 40.29 20.15"/><path class="cls-6" d="M171,1.14c-2.46,2-5.15,1.72-8,0A7.6,7.6,0,0,1,171,1.14Z"/><path class="cls-6" d="M155,1.14c-2.45,2-5.16,1.72-8,0A7.58,7.58,0,0,1,155,1.14Z"/><path class="cls-6" d="M138.91,1.14c-2.46,2-5.16,1.72-8,0A7.6,7.6,0,0,1,138.91,1.14Z"/><path class="cls-6" d="M122.87,1.14c-2.46,2-5.15,1.72-8,0A7.6,7.6,0,0,1,122.87,1.14Z"/><path class="cls-6" d="M106.83,1.14c-2.45,2-5.16,1.72-8,0A7.58,7.58,0,0,1,106.83,1.14Z"/><path class="cls-6" d="M90.79,1.14c-2.46,2-5.16,1.72-8,0A7.6,7.6,0,0,1,90.79,1.14Z"/><path class="cls-5" d="M163,1.14c2.86,1.72,5.55,2,8,0l1.22,7.59c-3.09,1.46-6.79,1.25-10.86,0Z"/><path class="cls-5" d="M145.31,8.73,147,1.14c2.84,1.72,5.55,2,8,0l1.22,7.59C153.09,10.19,149.39,10,145.31,8.73Z"/><path class="cls-5" d="M130.9,1.14c2.85,1.72,5.55,2,8,0l1.23,7.59c-3.1,1.46-6.79,1.25-10.87,0Z"/><path class="cls-5" d="M114.86,1.14c2.86,1.72,5.55,2,8,0l1.22,7.59c-3.09,1.46-6.79,1.25-10.86,0Z"/><path class="cls-5" d="M98.83,1.14c2.84,1.72,5.55,2,8,0l1.23,7.59c-3.09,1.46-6.79,1.25-10.87,0Z"/><path class="cls-5" d="M82.78,1.14c2.85,1.72,5.55,2,8,0L92,8.73c-3.1,1.46-6.79,1.25-10.87,0Z"/></g></g></g></svg>