<svg xmlns="http://www.w3.org/2000/svg" xmlns:xlink="http://www.w3.org/1999/xlink" viewBox="0 0 83.39 231.57"><defs><style>.cls-1{isolation:isolate;}.cls-2{fill:url(#_ÂÁ_Ï_ÌÌ_È_ËÂÌÚ_1992);}.cls-3{fill:url(#_ÂÁ_Ï_ÌÌ_È_ËÂÌÚ_10);}.cls-4{fill:#243356;}.cls-5{fill:url(#_ÂÁ_Ï_ÌÌ_È_ËÂÌÚ_19);}.cls-6{fill:#d43520;}.cls-7{fill:url(#_ÂÁ_Ï_ÌÌ_È_ËÂÌÚ_1992-2);}.cls-8{fill:url(#_ÂÁ_Ï_ÌÌ_È_ËÂÌÚ_10-2);}.cls-16,.cls-9{mix-blend-mode:screen;}.cls-9{fill:url(#_ÂÁ_Ï_ÌÌ_È_ËÂÌÚ_1991);}.cls-10{fill:#32486e;}.cls-11{fill:#50686b;}.cls-12{fill:url(#_ÂÁ_Ï_ÌÌ_È_ËÂÌÚ_10-3);}.cls-13{fill:url(#_ÂÁ_Ï_ÌÌ_È_ËÂÌÚ_10-4);}.cls-14{fill:url(#_ÂÁ_Ï_ÌÌ_È_ËÂÌÚ_10-5);}.cls-15{fill:url(#_ÂÁ_Ï_ÌÌ_È_ËÂÌÚ_1992-3);}.cls-16{fill:url(#_ÂÁ_Ï_ÌÌ_È_ËÂÌÚ_1991-2);}.cls-17{fill:#3d6b8d;}</style><linearGradient id="_ÂÁ_Ï_ÌÌ_È_ËÂÌÚ_1992" x1="13.28" y1="60.48" x2="14.96" y2="8.06" gradientUnits="userSpaceOnUse"><stop offset="0" stop-color="#343d63"/><stop offset="0.55" stop-color="#325e7f"/><stop offset="1" stop-color="#3d6b8d"/></linearGradient><linearGradient id="_ÂÁ_Ï_ÌÌ_È_ËÂÌÚ_10" x1="43.86" y1="74.98" x2="6.01" y2="17.38" gradientUnits="userSpaceOnUse"><stop offset="0" stop-color="#708588"/><stop offset="0.33" stop-color="#809693"/><stop offset="0.97" stop-color="#abc2b0"/><stop offset="1" stop-color="#adc4b1"/></linearGradient><linearGradient id="_ÂÁ_Ï_ÌÌ_È_ËÂÌÚ_19" x1="29.43" y1="40.87" x2="45.46" y2="40.87" gradientUnits="userSpaceOnUse"><stop offset="0" stop-color="#adc4b1"/><stop offset="0.37" stop-color="#708588"/><stop offset="0.64" stop-color="#9bb1a5"/><stop offset="0.78" stop-color="#adc4b1"/></linearGradient><linearGradient id="_ÂÁ_Ï_ÌÌ_È_ËÂÌÚ_1992-2" x1="30.14" y1="48.18" x2="50.82" y2="48.18" xlink:href="#_ÂÁ_Ï_ÌÌ_È_ËÂÌÚ_1992"/><linearGradient id="_ÂÁ_Ï_ÌÌ_È_ËÂÌÚ_10-2" x1="46.53" y1="55.58" x2="62.02" y2="97.7" xlink:href="#_ÂÁ_Ï_ÌÌ_È_ËÂÌÚ_10"/><linearGradient id="_ÂÁ_Ï_ÌÌ_È_ËÂÌÚ_1991" x1="41.68" y1="35.22" x2="45.95" y2="51.29" gradientUnits="userSpaceOnUse"><stop offset="0" stop-color="#668081"/><stop offset="1" stop-color="#272727"/></linearGradient><linearGradient id="_ÂÁ_Ï_ÌÌ_È_ËÂÌÚ_10-3" x1="67.89" y1="233.44" x2="67.56" y2="217.2" xlink:href="#_ÂÁ_Ï_ÌÌ_È_ËÂÌÚ_10"/><linearGradient id="_ÂÁ_Ï_ÌÌ_È_ËÂÌÚ_10-4" x1="32.49" y1="234.17" x2="32.15" y2="217.93" xlink:href="#_ÂÁ_Ï_ÌÌ_È_ËÂÌÚ_10"/><linearGradient id="_ÂÁ_Ï_ÌÌ_È_ËÂÌÚ_10-5" x1="50.63" y1="212.82" x2="49.63" y2="117.37" xlink:href="#_ÂÁ_Ï_ÌÌ_È_ËÂÌÚ_10"/><linearGradient id="_ÂÁ_Ï_ÌÌ_È_ËÂÌÚ_1992-3" x1="51.15" y1="84.58" x2="60.76" y2="79.49" xlink:href="#_ÂÁ_Ï_ÌÌ_È_ËÂÌÚ_1992"/><linearGradient id="_ÂÁ_Ï_ÌÌ_È_ËÂÌÚ_1991-2" x1="54.88" y1="73.04" x2="59.52" y2="87.74" xlink:href="#_ÂÁ_Ï_ÌÌ_È_ËÂÌÚ_1991"/></defs><g class="cls-1"><g id="Layer_2" data-name="Layer 2"><g id="layer_1-2" data-name="layer 1"><g id="MIC"><path class="cls-2" d="M21.12,5.42c4,4.34,6.34,11.61,6,19-.54,11.37-5.8,19.8-10.49,22a5.9,5.9,0,0,1-2.31.57c-5.63.11-10.49-9-12.15-22C.78,14.31,4.83,5.19,10.38,2.65a8.56,8.56,0,0,1,3.68-.84C16.5,1.84,18.94,3.08,21.12,5.42Z"/><path class="cls-3" d="M61.78,67.33,19,70.3l-1.5-23.38h0C23,44,28.05,34.91,28.66,24c.73-13.17-6.52-24-14.6-24S-1.42,11.36.23,24.87C1.85,38,6.84,48.09,14,47.88l.69-.06,2.07,24.63,45.38-4ZM14.31,46.92c-5.63.11-10.49-9-12.15-22C.78,14.31,4.83,5.19,10.38,2.65a8.56,8.56,0,0,1,3.68-.84c2.44,0,4.88,1.27,7.06,3.61,4,4.34,6.34,11.61,6,19-.54,11.37-5.8,19.8-10.49,22A5.9,5.9,0,0,1,14.31,46.92Z"/><path class="cls-4" d="M36.79,17.54l7.93,19.13h0l-15.27,7h0L20.09,25.22A23.09,23.09,0,0,1,36.79,17.54Z"/><polygon class="cls-5" points="29.44 43.68 44.71 36.67 44.72 36.67 45.46 38.45 30.14 45.08 29.43 43.68 29.44 43.68"/><path class="cls-6" d="M40.87,45a1.44,1.44,0,0,1-2.62,1.21A1.43,1.43,0,0,1,39,44.26,1.44,1.44,0,0,1,40.87,45Z"/><path class="cls-7" d="M30.14,45.08l15.32-6.63,5.36,12.94-4.37,2L41,55.9l-4.36,2ZM40.87,45a1.44,1.44,0,0,0-1.91-.7,1.43,1.43,0,0,0-.71,1.91A1.44,1.44,0,0,0,40.87,45Z"/><polygon class="cls-4" points="46.45 53.39 47.8 57.08 46.46 57.7 44.27 58.71 42.92 59.33 41 55.9 46.45 53.39"/><polygon class="cls-8" points="46.46 57.7 69.47 108.67 67.97 109.35 44.27 58.71 46.46 57.7"/><polygon class="cls-9" points="38.73 39.41 44.72 52.34 43.47 54.28 50 51.27 43.43 37.26 38.73 39.41"/><path class="cls-10" d="M26.06,21.31l5-.06,7.67,18.16,4.7-2.15L35.56,18.87C32.75,18.53,29.52,19.56,26.06,21.31Z"/><polygon class="cls-11" points="52.01 220.53 56.99 231.57 56.03 231.57 49.84 220.53 52.01 220.53"/><polygon class="cls-12" points="83.39 231.57 82.16 231.57 52.07 219.41 52.18 217.31 83.39 231.57"/><polygon class="cls-13" points="47.87 217.29 47.98 219.4 17.85 231.57 16.63 231.57 47.87 217.29"/><polygon class="cls-4" points="52.04 219.4 52.07 219.41 52.01 220.53 49.84 220.53 48.04 220.53 47.98 219.4 47.87 217.29 47.8 216.09 49.22 216.09 50.81 216.09 52.25 216.09 52.18 217.31 52.15 217.29 52.04 219.4"/><polygon class="cls-14" points="50.81 87.7 50.81 216.09 49.22 216.09 47.8 86.54 49.19 88.58 50.81 87.7"/><path class="cls-4" d="M49.94,81.61l3.27,4.8a4.15,4.15,0,0,1-4,2.17c-3.12,0-3.12-4.59-3.12-4.59Z"/><polygon class="cls-15" points="58.09 73.43 62.13 86.64 55.52 89.78 53.21 86.41 49.94 81.61 47.8 78.48 58.09 73.43"/><polygon class="cls-16" points="53.64 75.62 59.13 88.06 61.27 87.05 57.19 73.88 53.64 75.62"/><circle class="cls-17" cx="49.53" cy="85.25" r="1.14"/><path class="cls-4" d="M54.31,68.62A4.31,4.31,0,1,0,50,72.93,4.31,4.31,0,0,0,54.31,68.62Z"/></g></g></g></g></svg>