<svg xmlns="http://www.w3.org/2000/svg" xmlns:xlink="http://www.w3.org/1999/xlink" viewBox="0 0 95.2 134.07"><defs><style>.cls-1{isolation:isolate;}.cls-2{fill:#2e3f5e;}.cls-3{fill:url(#_ÂÁ_Ï_ÌÌ_È_ËÂÌÚ_1992);}.cls-4{fill:url(#_ÂÁ_Ï_ÌÌ_È_ËÂÌÚ_1992-2);}.cls-5{fill:#aa5631;}.cls-6{fill:#22567d;}.cls-7{fill:url(#_ÂÁ_Ï_ÌÌ_È_ËÂÌÚ_10);}.cls-8{fill:url(#_ÂÁ_Ï_ÌÌ_È_ËÂÌÚ_10-2);}.cls-9{fill:url(#_ÂÁ_Ï_ÌÌ_È_ËÂÌÚ_1992-3);}.cls-10{fill:url(#_ÂÁ_Ï_ÌÌ_È_ËÂÌÚ_1992-4);}.cls-11{fill:#6b3721;}.cls-12{fill:#471409;}.cls-13,.cls-14,.cls-16,.cls-17,.cls-18,.cls-19{mix-blend-mode:screen;}.cls-13{fill:url(#_ÂÁ_Ï_ÌÌ_È_ËÂÌÚ_1991);}.cls-14{fill:url(#_ÂÁ_Ï_ÌÌ_È_ËÂÌÚ_1991-2);}.cls-15{fill:#1dc0cb;}.cls-16{fill:url(#_ÂÁ_Ï_ÌÌ_È_ËÂÌÚ_1990);}.cls-17{fill:url(#_ÂÁ_Ï_ÌÌ_È_ËÂÌÚ_1990-2);}.cls-18{fill:url(#_ÂÁ_Ï_ÌÌ_È_ËÂÌÚ_1990-3);}.cls-19{fill:url(#_ÂÁ_Ï_ÌÌ_È_ËÂÌÚ_1990-4);}</style><linearGradient id="_ÂÁ_Ï_ÌÌ_È_ËÂÌÚ_1992" x1="55.9" y1="103.82" x2="62.81" y2="94.52" gradientUnits="userSpaceOnUse"><stop offset="0" stop-color="#343d63"/><stop offset="0.55" stop-color="#325e7f"/><stop offset="1" stop-color="#3d6b8d"/></linearGradient><linearGradient id="_ÂÁ_Ï_ÌÌ_È_ËÂÌÚ_1992-2" x1="67.32" y1="84.43" x2="49.11" y2="110.8" xlink:href="#_ÂÁ_Ï_ÌÌ_È_ËÂÌÚ_1992"/><linearGradient id="_ÂÁ_Ï_ÌÌ_È_ËÂÌÚ_10" x1="116.72" y1="53.8" x2="65.98" y2="90.48" gradientUnits="userSpaceOnUse"><stop offset="0" stop-color="#708588"/><stop offset="0.33" stop-color="#809693"/><stop offset="0.97" stop-color="#abc2b0"/><stop offset="1" stop-color="#adc4b1"/></linearGradient><linearGradient id="_ÂÁ_Ï_ÌÌ_È_ËÂÌÚ_10-2" x1="86.43" y1="11.89" x2="35.69" y2="48.56" xlink:href="#_ÂÁ_Ï_ÌÌ_È_ËÂÌÚ_10"/><linearGradient id="_ÂÁ_Ï_ÌÌ_È_ËÂÌÚ_1992-3" x1="61.82" y1="27.79" x2="48.63" y2="43.24" xlink:href="#_ÂÁ_Ï_ÌÌ_È_ËÂÌÚ_1992"/><linearGradient id="_ÂÁ_Ï_ÌÌ_È_ËÂÌÚ_1992-4" x1="54.86" y1="39.45" x2="60.81" y2="30.49" xlink:href="#_ÂÁ_Ï_ÌÌ_È_ËÂÌÚ_1992"/><linearGradient id="_ÂÁ_Ï_ÌÌ_È_ËÂÌÚ_1991" x1="62" y1="28.88" x2="59.65" y2="33.48" gradientUnits="userSpaceOnUse"><stop offset="0" stop-color="#668081"/><stop offset="1" stop-color="#272727"/></linearGradient><linearGradient id="_ÂÁ_Ï_ÌÌ_È_ËÂÌÚ_1991-2" x1="63.99" y1="89.73" x2="61.65" y2="94.34" gradientTransform="matrix(1.27, -0.09, 0.12, 1.26, -25.94, -18.58)" xlink:href="#_ÂÁ_Ï_ÌÌ_È_ËÂÌÚ_1991"/><linearGradient id="_ÂÁ_Ï_ÌÌ_È_ËÂÌÚ_1990" x1="64.08" y1="8.83" x2="79.99" y2="37.3" gradientUnits="userSpaceOnUse"><stop offset="0" stop-color="#dfd7b9"/><stop offset="0.89" stop-color="#272727"/></linearGradient><linearGradient id="_ÂÁ_Ï_ÌÌ_È_ËÂÌÚ_1990-2" x1="33.63" y1="25.84" x2="49.54" y2="54.31" xlink:href="#_ÂÁ_Ï_ÌÌ_È_ËÂÌÚ_1990"/><linearGradient id="_ÂÁ_Ï_ÌÌ_È_ËÂÌÚ_1990-3" x1="69.2" y1="67.28" x2="89.04" y2="92.65" xlink:href="#_ÂÁ_Ï_ÌÌ_È_ËÂÌÚ_1990"/><linearGradient id="_ÂÁ_Ï_ÌÌ_È_ËÂÌÚ_1990-4" x1="31.76" y1="96.56" x2="51.6" y2="121.93" xlink:href="#_ÂÁ_Ï_ÌÌ_È_ËÂÌÚ_1990"/></defs><g class="cls-1"><g id="Layer_2" data-name="Layer 2"><g id="layer_1-2" data-name="layer 1"><g id="Monitor"><path class="cls-2" d="M83.59,96.73A15.29,15.29,0,0,1,81.35,104l-12.26-3.31c3-7.91-3.73-13.92-10.65-12.64L56.58,71.51C67.68,70.14,83,81.28,83.59,96.73Z"/><path class="cls-2" d="M66.06,101.83s-4.56,3.67-8.79.27a7.8,7.8,0,0,1-2.32-9C56.14,98.74,59.8,101.69,66.06,101.83Z"/><path class="cls-2" d="M61.9,38.05s-3.36,2.7-6.49.19a5.76,5.76,0,0,1-1.71-6.65C54.58,35.75,57.28,37.94,61.9,38.05Z"/><path class="cls-2" d="M74.54,34a11.12,11.12,0,0,1-1.66,5.36l-8.73-2.12c2.23-5.85-2.76-10.29-7.87-9.34L54.9,15.64C63.1,14.63,74.11,22.54,74.54,34Z"/><path class="cls-3" d="M68.9,96.67a7,7,0,0,1-7,7.73,8.56,8.56,0,0,1-8.45-7.61,7,7,0,0,1,7-7.72A8.57,8.57,0,0,1,68.9,96.67ZM57.27,102.1c4.23,3.4,8.79-.27,8.79-.27-6.26-.14-9.92-3.09-11.11-8.73A7.8,7.8,0,0,0,57.27,102.1Z"/><path class="cls-4" d="M84.65,94.54c0,11.52-12,24.17-23,24.17-10.24,0-25.37-12.73-25.37-24.17,0-12,11.6-24.19,23-24.19C70.91,70.35,84.65,83.47,84.65,94.54ZM81.35,104a15.29,15.29,0,0,0,2.24-7.25c-.58-15.45-15.91-26.59-27-25.22L58.44,88c6.92-1.28,13.68,4.73,10.65,12.64Zm-19.47.42a7,7,0,0,0,7-7.73,8.57,8.57,0,0,0-8.45-7.6,7,7,0,0,0-7,7.72A8.56,8.56,0,0,0,61.88,104.4Z"/><path class="cls-5" d="M89.76,0,95.2,134.07h-68L24.06,0Zm2.5,131.09L88,2.52H26.46L30,131.09Z"/><path class="cls-6" d="M88,2.52l4.28,128.57H30L26.46,2.52ZM61.66,122C74.4,122,88,108.11,88,94.54,88,81.46,72.7,67,59.29,67,46.21,67,33,80.78,33,94.54,33,108,49.78,122,61.66,122ZM58.66,53c9.4,0,19.44-10.28,19.44-20.32,0-9.65-11.29-20.31-21.19-20.31-9.67,0-19.45,10.16-19.45,20.31C37.46,42.56,49.88,53,58.66,53Z"/><path class="cls-7" d="M88,94.54C88,108.11,74.4,122,61.66,122,49.78,122,33,108,33,94.54,33,80.78,46.21,67,59.29,67,72.7,67,88,81.46,88,94.54ZM61.66,118.71c11,0,23-12.65,23-24.17,0-11.07-13.74-24.19-25.36-24.19-11.4,0-23,12.21-23,24.19C36.29,106,51.42,118.71,61.66,118.71Z"/><path class="cls-8" d="M78.1,32.65c0,10-10,20.32-19.44,20.32-8.78,0-21.2-10.41-21.2-20.32,0-10.15,9.78-20.31,19.45-20.31C66.81,12.34,78.1,23,78.1,32.65ZM58.66,50.52c8.09,0,17-9.35,17-17.87,0-8.17-10.16-17.85-18.73-17.85-8.42,0-17,9-17,17.85C39.91,41.1,51.09,50.52,58.66,50.52Z"/><path class="cls-9" d="M75.64,32.65c0,8.52-8.89,17.87-17,17.87-7.57,0-18.75-9.42-18.75-17.87,0-8.84,8.58-17.85,17-17.85C65.48,14.8,75.64,24.48,75.64,32.65Zm-2.76,6.66A11.12,11.12,0,0,0,74.54,34C74.11,22.54,63.1,14.63,54.9,15.64l1.38,12.21c5.11-1,10.1,3.49,7.87,9.34Zm-14.06.63A5.14,5.14,0,0,0,64,34.24a6.33,6.33,0,0,0-6.24-5.63,5.14,5.14,0,0,0-5.18,5.72A6.32,6.32,0,0,0,58.82,39.94Z"/><path class="cls-10" d="M64,34.24a5.14,5.14,0,0,1-5.18,5.7,6.32,6.32,0,0,1-6.24-5.61,5.14,5.14,0,0,1,5.18-5.72A6.33,6.33,0,0,1,64,34.24Zm-8.59,4c3.13,2.51,6.49-.19,6.49-.19-4.62-.11-7.32-2.3-8.2-6.46A5.76,5.76,0,0,0,55.41,38.24Z"/><path class="cls-11" d="M24.06,0l3.17,134.07H0L2.53,0ZM20.8,29.35l-.88-12.07H5.81V29.35Z"/><polygon class="cls-12" points="19.92 17.28 20.8 29.35 5.82 29.35 5.82 17.28 19.92 17.28"/><path class="cls-13" d="M62.57,34.46c-.83.83-2.52.49-3.77-.76s-1.59-2.94-.76-3.77,2.52-.49,3.78.76S63.41,33.63,62.57,34.46Z"/><path class="cls-14" d="M67,96.15c-1,1.13-3.13.85-4.86-.62s-2.36-3.58-1.4-4.7,3.13-.84,4.86.63S68,95,67,96.15Z"/><polygon class="cls-11" points="26.46 2.52 87.97 2.52 92.27 131.09 90.61 131.09 86.74 3.87 26.46 3.58 26.46 2.52"/><path class="cls-15" d="M32.84,8.57A1.85,1.85,0,1,1,31,6.72,1.85,1.85,0,0,1,32.84,8.57Z"/><path class="cls-16" d="M68.31,16.47l-1.76,1.79a24.62,24.62,0,0,1,6.25,6.3l2.32-1A26.7,26.7,0,0,0,68.31,16.47Z"/><path class="cls-17" d="M43.88,45.68l2-1.44a22.4,22.4,0,0,1-4.68-6.31l-2.1,1.26A24.75,24.75,0,0,0,43.88,45.68Z"/><path class="cls-18" d="M73,71.46l-1.24,3.18a34.25,34.25,0,0,1,7.44,6.77L82,79.6A36.56,36.56,0,0,0,73,71.46Z"/><path class="cls-19" d="M44.87,115l1.86-2.75a34.41,34.41,0,0,1-6.56-7l-2.89,1.63A37.6,37.6,0,0,0,44.87,115Z"/></g></g></g></g></svg>