<svg xmlns="http://www.w3.org/2000/svg" xmlns:xlink="http://www.w3.org/1999/xlink" viewBox="0 0 87.83 102.13"><defs><style>.cls-1{isolation:isolate;}.cls-2{fill:#243356;}.cls-3{fill:#e69a1e;}.cls-4{fill:#b57128;}.cls-5{fill:#f8ca61;}.cls-6{fill:#22567d;}.cls-7{fill:#bf6a45;}.cls-10,.cls-11,.cls-8,.cls-9{mix-blend-mode:screen;}.cls-8{fill:url(#_ÂÁ_Ï_ÌÌ_È_ËÂÌÚ_54);}.cls-9{fill:url(#_ÂÁ_Ï_ÌÌ_È_ËÂÌÚ_54-2);}.cls-10{fill:url(#_ÂÁ_Ï_ÌÌ_È_ËÂÌÚ_54-3);}.cls-11{fill:url(#_ÂÁ_Ï_ÌÌ_È_ËÂÌÚ_7);}</style><linearGradient id="_ÂÁ_Ï_ÌÌ_È_ËÂÌÚ_54" x1="38.14" y1="78.72" x2="42.96" y2="90.57" gradientUnits="userSpaceOnUse"><stop offset="0.17" stop-color="#bdb58f"/><stop offset="0.26" stop-color="#b3ac88"/><stop offset="0.41" stop-color="#999274"/><stop offset="0.6" stop-color="#6e6953"/><stop offset="0.82" stop-color="#333127"/><stop offset="1"/></linearGradient><linearGradient id="_ÂÁ_Ï_ÌÌ_È_ËÂÌÚ_54-2" x1="26.75" y1="15.13" x2="43.41" y2="41.25" xlink:href="#_ÂÁ_Ï_ÌÌ_È_ËÂÌÚ_54"/><linearGradient id="_ÂÁ_Ï_ÌÌ_È_ËÂÌÚ_54-3" x1="68.57" y1="68.88" x2="48.98" y2="44.43" xlink:href="#_ÂÁ_Ï_ÌÌ_È_ËÂÌÚ_54"/><linearGradient id="_ÂÁ_Ï_ÌÌ_È_ËÂÌÚ_7" x1="17.44" y1="-13.13" x2="67.43" y2="107.69" gradientUnits="userSpaceOnUse"><stop offset="0" stop-color="#8a8267"/><stop offset="0.26" stop-color="#676250"/><stop offset="0.58" stop-color="#44423a"/><stop offset="0.83" stop-color="#2f2e2c"/><stop offset="1" stop-color="#272727"/></linearGradient></defs><g class="cls-1"><g id="Layer_2" data-name="Layer 2"><g id="layer_1-2" data-name="layer 1"><g id="Plaque"><circle class="cls-2" cx="43.91" cy="42.1" r="1"/><path class="cls-3" d="M43.91,31A11.11,11.11,0,1,1,32.8,42.1,11.12,11.12,0,0,1,43.91,31Zm1,11.11a1,1,0,1,0-2,0,1,1,0,0,0,2,0Z"/><path class="cls-4" d="M55,42.1A11.11,11.11,0,1,0,43.91,53.21,11.12,11.12,0,0,0,55,42.1ZM43.91,30A12.09,12.09,0,1,1,31.82,42.1,12.1,12.1,0,0,1,43.91,30Z"/><path class="cls-5" d="M43.91,13.63A28.47,28.47,0,1,1,15.45,42.1,28.47,28.47,0,0,1,43.91,13.63ZM56,42.1A12.09,12.09,0,1,0,43.91,54.19,12.1,12.1,0,0,0,56,42.1Z"/><polygon class="cls-5" points="59.7 79.9 58.81 90.71 28.18 90.06 27.05 80.56 59.7 79.9"/><path class="cls-6" d="M83.7,4,79.1,98.2H8.64L4.13,5.66ZM72.38,42.1A28.47,28.47,0,1,0,43.91,70.56,28.47,28.47,0,0,0,72.38,42.1ZM58.81,90.71,59.7,79.9l-32.65.66,1.13,9.5Z"/><path class="cls-7" d="M87.83,0l-5,102.13h-78L0,1.81ZM79.1,98.2,83.7,4,4.13,5.66,8.64,98.2Z"/><polygon class="cls-3" points="28.05 88.96 57.77 89.51 58.9 79.91 59.7 79.9 58.81 90.71 28.18 90.06 28.05 88.96"/><path class="cls-8" d="M40.11,80.29l1.67,10.06-6-.13-3-9.78Zm1.42,0,1.09,10.08,2.72,0,.46-10.24Z"/><path class="cls-9" d="M17.66,31.08a28.51,28.51,0,0,1,6.88-9.84l10,13.17a12.37,12.37,0,0,0-2.12,3.83Zm9-11.61L36,32.93A12,12,0,0,1,43.91,30a13.23,13.23,0,0,1,1.79.14l-.62-16.49-1.17,0A28.34,28.34,0,0,0,26.64,19.47Z"/><path class="cls-3" d="M17.52,52.77l15.69-5.05a12.94,12.94,0,0,1-.76-1.8L16.08,48.09A28.51,28.51,0,0,0,17.52,52.77Z"/><path class="cls-3" d="M64.26,22.2,52.64,33.75a12.27,12.27,0,0,1,1.12,1.36l13.53-9.25A28.72,28.72,0,0,0,64.26,22.2Z"/><path class="cls-10" d="M66.54,59.37,53.94,48.84a12.11,12.11,0,0,1-2.36,2.59l8.64,14A28.79,28.79,0,0,0,66.54,59.37Z"/><path class="cls-3" d="M55.76,44.47A11.72,11.72,0,0,1,55,46.89l14.32,8a28.11,28.11,0,0,0,2.1-5.51Z"/><path class="cls-3" d="M57.22,67.26,49.76,52.67a11.94,11.94,0,0,1-5.85,1.52A12.06,12.06,0,0,1,40,53.53l-.73,16.65a28.5,28.5,0,0,0,17.95-2.92Z"/><polygon class="cls-11" points="10.8 5.52 34.58 98.2 63.59 98.2 53.64 4.47 10.8 5.52"/></g></g></g></g></svg>